Coordinates
version=1
nRows=60
nColumns=12
inDegrees=yes

Units are S.I. units (second, meters, Newtons, ...)
Angles are in degrees

endheader
time	SC_y	SC_z	SC_x	AC_y	AC_z	AC_x	GH_y	GH_z	GH_yy	EL_x	PS_y
       0.0              -58.81          25.51          7.865          64.08         -19.87         -4.777          76.72           39.2         -54.31          132.8          12.24
   0.04422               -58.8          25.51          7.869          64.08         -19.87         -4.778          76.72           39.2         -54.32          132.8          12.25
   0.08844               -58.8          25.51          7.872          64.08         -19.87         -4.779          76.73          39.21         -54.33          132.8          12.25
    0.1327              -58.79          25.51          7.876          64.08         -19.86         -4.781          76.73          39.22         -54.34          132.8          12.26
    0.1769              -58.78          25.51           7.88          64.08         -19.86         -4.782          76.73          39.23         -54.36          132.7          12.27
    0.2211              -58.77          25.51          7.884          64.08         -19.86         -4.783          76.74          39.24         -54.38          132.7          12.27
    0.2653              -58.76          25.51          7.888          64.08         -19.86         -4.785          76.74          39.24         -54.39          132.7          12.28
    0.3095              -58.75          25.51          7.893          64.08         -19.85         -4.786          76.75          39.25         -54.41          132.7          12.29
    0.3538              -58.74          25.51          7.898          64.08         -19.85         -4.788          76.76          39.26         -54.43          132.7           12.3
     0.398              -58.73          25.51          7.904          64.08         -19.85         -4.789          76.76          39.28         -54.45          132.7          12.31
    0.4422              -58.72          25.51           7.91          64.08         -19.84         -4.791          76.77          39.29         -54.47          132.6          12.32
    0.4864              -58.71          25.51          7.916          64.08         -19.84         -4.793          76.78           39.3          -54.5          132.6          12.33
    0.5307              -58.69          25.52          7.923          64.08         -19.84         -4.795          76.78          39.32         -54.52          132.6          12.35
    0.5749              -58.68          25.52           7.93          64.07         -19.83         -4.798          76.79          39.33         -54.55          132.6          12.36
    0.6191              -58.66          25.52          7.939          64.07         -19.83           -4.8           76.8          39.35         -54.58          132.5          12.37
    0.6633              -58.64          25.52          7.947          64.07         -19.82         -4.803          76.81          39.37         -54.61          132.5          12.39
    0.7075              -58.62          25.52          7.957          64.07         -19.82         -4.806          76.82          39.38         -54.65          132.5          12.41
    0.7518               -58.6          25.52          7.967          64.07         -19.81         -4.809          76.83          39.41         -54.69          132.4          12.43
     0.796              -58.58          25.52          7.978          64.07         -19.81         -4.813          76.85          39.43         -54.73          132.4          12.45
    0.8402              -58.55          25.52          7.991          64.07          -19.8         -4.816          76.86          39.45         -54.78          132.3          12.47
    0.8844              -58.52          25.52          8.004          64.06         -19.79         -4.821          76.88          39.48         -54.83          132.3          12.49
    0.9286              -58.49          25.52          8.019          64.06         -19.78         -4.825          76.89          39.51         -54.88          132.2          12.52
    0.9729              -58.46          25.52          8.036          64.06         -19.77          -4.83          76.91          39.55         -54.95          132.2          12.55
     1.017              -58.42          25.52          8.054          64.06         -19.76         -4.836          76.93          39.58         -55.01          132.1          12.59
     1.061              -58.38          25.52          8.074          64.05         -19.75         -4.842          76.96          39.63         -55.09          132.0          12.62
     1.106              -58.33          25.52          8.097          64.05         -19.74         -4.849          76.98          39.67         -55.17          131.9          12.66
      1.15              -58.28          25.53          8.122          64.05         -19.73         -4.857          77.01          39.72         -55.27          131.8          12.71
     1.194              -58.22          25.53          8.151          64.04         -19.71         -4.866          77.05          39.78         -55.38          131.7          12.76
     1.238              -58.15          25.53          8.183          64.04         -19.69         -4.876          77.08          39.85          -55.5          131.6          12.82
     1.282              -58.08          25.53           8.22          64.03         -19.67         -4.888          77.12          39.92         -55.64          131.5          12.89
     1.327              -57.99          25.53          8.261          64.03         -19.65         -4.901          77.17          40.01         -55.79          131.3          12.97
     1.371              -57.89          25.54          8.309          64.02         -19.62         -4.915          77.23          40.11         -55.97          131.1          13.05
     1.415              -57.77          25.54          8.365          64.01         -19.59         -4.933          77.29          40.22         -56.18          130.9          13.16
     1.459              -57.64          25.54          8.429           64.0         -19.55         -4.953          77.36          40.36         -56.42          130.7          13.27
     1.504              -57.48          25.55          8.505          63.99         -19.51         -4.976          77.45          40.51          -56.7          130.4          13.41
     1.548               -57.3          25.55          8.593          63.98         -19.46         -5.004          77.55          40.69         -57.04          130.1          13.57
     1.592              -57.08          25.56          8.699          63.97          -19.4         -5.036          77.67          40.91         -57.43          129.7          13.77
     1.636              -56.82          25.57          8.825          63.95         -19.33         -5.076          77.82          41.17         -57.91          129.2           14.0
      1.68               -56.5          25.57          8.978          63.93         -19.25         -5.123          77.99          41.48         -58.48          128.7          14.28
     1.725              -56.11          25.58          9.165           63.9         -19.14         -5.181          78.21          41.87         -59.18          128.0          14.62
     1.769              -55.63           25.6          9.396          63.87         -19.01         -5.253          78.47          42.34         -60.05          127.1          15.05
     1.813              -55.04          25.61          9.683          63.83         -18.85         -5.343           78.8          42.93         -61.13          126.0          15.57
     1.857              -54.29          25.63          10.05          63.78         -18.65         -5.455          79.21          43.67         -62.49          124.7          16.24
     1.902              -53.33          25.66          10.51          63.71         -18.39         -5.598          79.74          44.62         -64.22          123.0          17.08
     1.946              -52.11          25.69           11.1          63.63         -18.06         -5.782          80.41          45.83         -66.43          120.8          18.16
      1.99              -50.54          25.74          11.85          63.52         -17.64         -6.017          81.28          47.39         -69.27          118.0          19.55
     2.034              -48.53          25.79          12.82          63.39          -17.1         -6.317          82.39          49.37          -72.9          114.4          21.32
     2.078              -46.01          25.86          14.03          63.22         -16.42         -6.695          83.78          51.87         -77.46          109.9          23.55
     2.123              -42.93          25.94          15.52          63.01          -15.6         -7.155          85.47          54.91         -83.01          104.4          26.26
     2.167              -39.37          26.04          17.23          62.77         -14.64         -7.689          87.44          58.43         -89.46          97.97          29.41
     2.211              -35.51          26.14          19.09          62.51          -13.6         -8.266          89.56          62.25         -96.43          91.05          32.82
     2.255              -31.65          26.25          20.95          62.25         -12.56         -8.844          91.69          66.07         -103.4          84.14          36.22
     2.299              -28.09          26.34          22.67          62.01          -11.6         -9.378          93.65          69.59         -109.8          77.76          39.37
     2.344              -25.02          26.42          24.15           61.8         -10.78         -9.838          95.35          72.63         -115.4          72.25          42.08
     2.388               -22.5          26.49          25.36          61.63          -10.1         -10.22          96.74          75.13         -120.0          67.73          44.31
     2.432              -20.49          26.55          26.33          61.49         -9.559         -10.52          97.84          77.11         -123.6          64.14          46.08
     2.476              -18.92          26.59          27.08          61.39         -9.136         -10.75          98.71          78.67         -126.4          61.32          47.47
     2.521               -17.7          26.62          27.67           61.3         -8.807         -10.93          99.38          79.88         -128.6          59.13          48.55
     2.565              -16.74          26.65          28.13          61.24          -8.55         -11.08          99.91          80.82         -130.4          57.42           49.4
     2.609              -15.99          26.67           28.5          61.19         -8.347         -11.19          100.3          81.57         -131.7          56.07          50.06
